<svg width="11" height="11" viewBox="0 0 11 11" fill="none" xmlns="http://www.w3.org/2000/svg">
<path d="M4.444 6.127C4.4715 6.3085 4.532 6.468 4.609 6.6055C4.686 6.743 4.796 6.8585 4.9335 6.9465C5.0655 7.029 5.2305 7.0675 5.434 7.073C5.5605 7.0675 5.676 7.0455 5.7805 7.0015C5.8905 6.952 5.9895 6.886 6.0665 6.8035C6.1435 6.721 6.204 6.622 6.2535 6.512C6.303 6.402 6.325 6.281 6.3305 6.16H7.315C7.304 6.4185 7.2545 6.655 7.161 6.8695C7.0675 7.084 6.941 7.271 6.776 7.425C6.611 7.579 6.413 7.7 6.182 7.788C5.951 7.876 5.698 7.9145 5.4175 7.9145C5.06 7.9145 4.7465 7.854 4.4825 7.7275C4.2185 7.601 3.9985 7.436 3.8225 7.2215C3.6465 7.007 3.5145 6.7595 3.432 6.4735C3.3495 6.1875 3.3 5.8905 3.3 5.5715V5.423C3.3 5.104 3.344 4.807 3.4265 4.521C3.509 4.235 3.641 3.9875 3.817 3.7785C3.993 3.5695 4.213 3.399 4.477 3.278C4.741 3.157 5.0545 3.091 5.412 3.091C5.6705 3.091 5.9125 3.135 6.138 3.2175C6.3635 3.3 6.5615 3.4155 6.732 3.564C6.9025 3.7125 7.04 3.883 7.139 4.081C7.238 4.279 7.2985 4.488 7.304 4.7135H6.3195C6.314 4.598 6.2865 4.4935 6.237 4.3945C6.1875 4.2955 6.1215 4.213 6.039 4.1415C5.9565 4.07 5.863 4.015 5.753 3.9765C5.6485 3.938 5.5385 3.927 5.423 3.9215C5.225 3.927 5.06 3.9655 4.9335 4.048C4.796 4.136 4.686 4.2515 4.609 4.389C4.532 4.5265 4.4715 4.6915 4.444 4.873C4.4165 5.0545 4.4 5.2415 4.4 5.423V5.5715C4.4 5.764 4.4165 5.9455 4.444 6.127ZM5.5 11C2.464 11 0 8.536 0 5.5C0 2.464 2.464 0 5.5 0C8.536 0 11 2.464 11 5.5C11 8.536 8.536 11 5.5 11ZM5.5 1.1C3.0745 1.1 1.1 3.0745 1.1 5.5C1.1 7.9255 3.0745 9.9 5.5 9.9C7.9255 9.9 9.9 7.9255 9.9 5.5C9.9 3.0745 7.9255 1.1 5.5 1.1Z" fill="white"/>
</svg>
