<svg width="81" height="25" viewBox="0 0 81 25" fill="none" xmlns="http://www.w3.org/2000/svg">
<path d="M6.04358 1.62776H10.3744L16.3446 19H12.234L10.8882 15.1096H5.48082L4.15955 19H0.0489359L6.04358 1.62776ZM10.2276 12.3447L8.19676 5.66497L6.11698 12.3447H10.2276ZM25.8852 9.50644C24.9391 9.50644 24.0827 9.6614 23.316 9.97133C22.5494 10.2649 21.9948 10.7054 21.6522 11.2926V19H17.7373V6.15433H21.3341V8.74793C21.7746 7.8834 22.3455 7.20645 23.0469 6.7171C23.7483 6.22774 24.4823 5.9749 25.249 5.95859C25.4284 5.95859 25.5589 5.95859 25.6405 5.95859C25.7384 5.95859 25.8199 5.96675 25.8852 5.98306V9.50644ZM35.8532 18.3149C35.4943 18.4617 35.0947 18.6085 34.6542 18.7553C34.2301 18.9021 33.7816 19.0163 33.3085 19.0979C32.8355 19.1957 32.3706 19.2447 31.9138 19.2447C31.2614 19.2447 30.6578 19.1387 30.1032 18.9266C29.5649 18.6982 29.1326 18.3312 28.8064 17.8255C28.4965 17.3199 28.3415 16.6511 28.3415 15.8192V9.11495H26.7022V6.15433H28.3415V2.06819H32.2564V6.15433H34.8745V9.11495H32.2564V14.4734C32.2564 14.8975 32.3624 15.2075 32.5745 15.4032C32.7865 15.5826 33.0557 15.6724 33.3819 15.6724C33.6592 15.6724 33.9528 15.6234 34.2628 15.5256C34.589 15.4277 34.8663 15.3217 35.0947 15.2075L35.8532 18.3149ZM49.7594 19H45.8445V11.782C45.8445 10.95 45.6732 10.3384 45.3307 9.94686C45.0044 9.55538 44.564 9.35963 44.0094 9.35963C43.7158 9.35963 43.3814 9.4575 43.0062 9.65325C42.6474 9.83268 42.313 10.0937 42.003 10.4362C41.6931 10.7788 41.4566 11.1784 41.2935 11.6352V19H37.3786V1.13841H41.2935V8.30751C41.7665 7.54085 42.3864 6.95362 43.153 6.54582C43.936 6.12171 44.7924 5.90965 45.7222 5.90965C46.603 5.90965 47.3044 6.05646 47.8264 6.35008C48.3647 6.64369 48.7725 7.03518 49.0498 7.52454C49.3271 7.99758 49.5147 8.51957 49.6126 9.09049C49.7104 9.6614 49.7594 10.2242 49.7594 10.7788V19ZM52.3604 19V6.15433H56.2753V19H52.3604ZM52.3604 4.68626V1.13841H56.2753V4.68626H52.3604ZM59.7872 19V10.1671H58.1479V7.20645H59.7872V6.15433C59.7872 5.07774 59.9666 4.14796 60.3255 3.36499C60.7007 2.58201 61.2227 1.97847 61.8915 1.55436C62.5766 1.11394 63.3677 0.893727 64.2648 0.893727C64.8194 0.893727 65.3741 0.958975 65.9287 1.08947C66.4833 1.21997 67.046 1.40755 67.6169 1.65223L66.9074 4.58838C66.6627 4.4742 66.3772 4.38449 66.051 4.31924C65.7248 4.23768 65.423 4.1969 65.1457 4.1969C64.6726 4.1969 64.3138 4.35186 64.0691 4.66179C63.8244 4.9554 63.7021 5.40398 63.7021 6.00753V7.20645H66.6872V10.1671H63.7021V19H59.7872ZM68.4676 20.933C68.7938 21.0308 69.0956 21.1042 69.3729 21.1532C69.6665 21.2184 69.9275 21.2511 70.1559 21.2511C70.4658 21.2511 70.7268 21.1776 70.9389 21.0308C71.1672 20.9003 71.363 20.6638 71.5261 20.3213C71.6892 19.995 71.836 19.5546 71.9665 19L67.0729 6.15433H71.1101L74.0952 14.9873L76.6399 6.15433H80.3345L75.441 21.0798C75.2126 21.7812 74.8619 22.401 74.3888 22.9393C73.9158 23.4776 73.3449 23.8936 72.6761 24.1872C72.0073 24.4971 71.2733 24.6521 70.474 24.6521C70.1314 24.6521 69.797 24.6195 69.4708 24.5542C69.1445 24.5053 68.8101 24.4156 68.4676 24.2851V20.933Z" fill="white"/>
</svg>
