<svg width="31" height="20" viewBox="0 0 31 20" fill="none" xmlns="http://www.w3.org/2000/svg">
<path d="M24.22 2.20962C24.2198 2.25913 24.2294 2.30818 24.2482 2.35395C24.2671 2.39973 24.2948 2.44132 24.3298 2.47632C24.3648 2.51133 24.4064 2.53906 24.4522 2.55791C24.498 2.57676 24.547 2.58636 24.5965 2.58616L27.036 2.58616L20.7914 8.83079C20.7211 8.90112 20.6816 8.9965 20.6816 9.09596C20.6816 9.19541 20.7211 9.2908 20.7914 9.36112C20.8617 9.43145 20.9571 9.47096 21.0566 9.47096C21.156 9.47096 21.2514 9.43145 21.3217 9.36112L27.5584 3.12444L27.5584 5.54805C27.5657 5.64222 27.6082 5.73017 27.6776 5.79432C27.7469 5.85848 27.8378 5.89412 27.9323 5.89412C28.0267 5.89412 28.1177 5.85848 28.187 5.79432C28.2563 5.73017 28.2989 5.64222 28.3062 5.54805L28.3088 2.1725C28.3086 2.08324 28.2731 1.9977 28.21 1.93459C28.1469 1.87148 28.0613 1.83593 27.9721 1.83574L24.5939 1.83574C24.4948 1.83603 24.3999 1.87552 24.3298 1.94557C24.2598 2.01562 24.2203 2.11055 24.22 2.20962Z" fill="white" stroke="white" stroke-width="0.4"/>
<rect x="0.526782" y="1.67131" width="16.857" height="16.857" rx="2.10713" stroke="white" stroke-width="1.05356"/>
<path d="M11.3538 8.32422C10.3158 8.32422 9.85029 8.89439 9.58997 9.29619V9.31553H9.57723C9.58195 9.30987 9.58666 9.3028 9.58997 9.29619V8.4624H7.63281C7.65875 9.01417 7.63281 14.3499 7.63281 14.3499H9.58997V11.0614C9.58997 10.8846 9.6027 10.7105 9.65458 10.5841C9.79653 10.2333 10.1186 9.8673 10.6586 9.8673C11.3679 9.8673 11.6509 10.4078 11.6509 11.1991V14.3494H13.608V10.9742C13.6076 9.16509 12.6412 8.32422 11.3538 8.32422Z" fill="white"/>
<path d="M5.58436 5.62109C4.91515 5.62109 4.47656 6.06157 4.47656 6.63929C4.47656 7.20379 4.90101 7.657 5.55842 7.657H5.57115C6.25356 7.657 6.67848 7.20379 6.67848 6.63929C6.66574 6.06157 6.25404 5.62109 5.58436 5.62109Z" fill="white"/>
<path d="M6.55138 8.46094H4.59375V14.3484H6.55138V8.46094Z" fill="white"/>
</svg>
