<svg width="277" height="118" viewBox="0 0 277 118" fill="none" xmlns="http://www.w3.org/2000/svg">
<rect width="277" height="118" rx="20" fill="white"/>
<path fill-rule="evenodd" clip-rule="evenodd" d="M68.6316 47.3677C67.1959 47.014 66.2139 45.7528 66.1545 44.3513C66.1314 44.1268 66.1497 43.9007 66.1981 43.6707C66.2092 43.6025 66.2243 43.5359 66.2385 43.4661C66.3551 42.9854 66.5748 42.5563 66.8675 42.197C68.1771 40.2029 70.8263 38.2081 71.0777 37.1603L71.0793 37.1587V37.1603C70.8263 38.2081 72.2802 41.2182 72.538 43.6009C72.6339 44.0554 72.6355 44.5385 72.5205 45.0191C72.5054 45.0842 72.4864 45.1476 72.4682 45.2087C72.4063 45.4427 72.3159 45.6592 72.1937 45.8488C71.5037 47.0639 70.064 47.7239 68.6316 47.3677Z" fill="#99CEDE"/>
<path fill-rule="evenodd" clip-rule="evenodd" d="M53.7801 75.8439C53.7056 75.6559 53.6651 75.383 53.6374 75.1792C53.5089 74.2488 53.5557 73.2502 53.6905 72.3237C53.9848 70.3019 54.7082 68.4157 55.3086 66.4717C55.5378 65.7292 55.7314 64.9884 55.9122 64.2333C55.9542 64.0604 56.0042 63.8883 56.0478 63.7162C56.1224 63.4219 56.1922 63.1284 56.262 62.8341C56.4635 61.991 56.6277 61.1304 56.7688 60.2761C57.2955 57.0899 57.4161 53.7554 57.0695 50.5176L56.8022 50.5161L56.2588 50.528C55.8646 50.7001 55.7472 49.0352 56.7284 48.9717C55.9019 49.1891 55.2959 47.3584 56.327 47.1086C55.733 46.8547 55.2713 45.9354 56.1486 45.5452C56.147 45.5404 56.1454 45.5341 56.143 45.5293C56.143 45.523 56.1406 45.5111 56.1375 45.4968C55.7409 45.1542 55.5965 45.3921 55.2848 44.737C55.1785 44.4522 55.3594 44.127 55.6505 44.2024C55.3546 44.131 54.7946 44.0953 54.6169 43.5686C54.5408 43.3211 54.9675 43.0102 54.9295 42.8587C54.9223 42.8341 54.4837 42.566 54.4575 42.3376C54.3941 41.7625 54.7922 41.7181 54.632 41.6729C53.6746 41.4032 53.098 40.3451 54.2822 40.15C54.2077 40.0984 53.7207 40.0239 53.616 39.801C53.2424 38.9951 53.6223 38.9896 53.7484 38.6318C52.9782 38.4986 52.7046 37.9561 53.282 37.3548C53.0353 37.285 52.7585 37.2692 52.6776 37.0598C52.5634 36.7639 52.6657 36.311 53.033 36.1793C52.8608 35.9842 52.3897 35.7018 52.427 35.3671C52.4595 35.0728 52.9362 34.8841 53.1012 34.7921C52.6269 34.7802 52.2628 34.5121 52.4888 34.0449C51.5941 33.8387 51.7353 33.3334 52.0748 33.0423C51.8242 32.9955 51.1095 32.8313 51.4982 32.3943C52.0859 31.9731 51.863 31.5297 52.0796 31.2473C52.4627 30.7453 54.3576 31.429 53.6453 32.5585C54.0205 32.7068 54.7875 32.683 54.5781 34.0076C55.2896 33.7554 55.606 35.0911 55.0643 35.5146C55.8369 35.2775 56.1454 36.2103 55.5005 36.8488C55.8773 36.8583 56.423 37.174 56.1811 37.6031C56.1502 37.6626 55.8392 38.0536 55.8956 38.0536C56.1192 38.0481 56.7887 38.2717 56.3485 39.287C56.9433 39.1744 56.9981 40.1214 56.5222 40.3665C57.8103 40.2468 57.7857 41.6761 57.0615 42.0933C57.6643 41.9291 58.2021 42.7611 57.7794 43.8581C58.1172 43.7502 58.306 44.6957 58.0165 45.5016C58.5416 45.8347 58.2703 47.126 57.9277 47.4917C58.2227 47.3433 58.5416 47.8097 58.5836 48.1056C58.6971 48.8837 58.1355 50.0417 57.5168 50.4058C57.9261 53.0891 57.984 55.8589 57.7452 58.547C57.6913 59.1633 57.6223 59.7788 57.539 60.3911C57.5025 60.6703 57.4565 60.9472 57.4161 61.2248C57.2566 62.3059 57.0147 63.3798 56.7657 64.4443L56.7673 64.4324C56.6848 64.8226 56.5983 65.2089 56.5039 65.596C56.4206 65.9402 56.3239 66.2813 56.2319 66.6224C56.032 67.368 55.7964 68.1088 55.5735 68.848C55.1238 70.3456 54.6883 71.8478 54.4091 73.3898C54.2886 74.0473 54.2156 74.7057 54.118 75.3664C54.0958 75.5274 54.0728 75.6963 54.0308 75.8526C54.0094 75.9272 53.9895 76.0017 53.9197 76.0438C53.8452 76.0184 53.8079 75.9129 53.7801 75.8439ZM57.9277 47.4917C57.8848 47.5147 57.8484 47.5416 57.8166 47.5757C57.8539 47.5599 57.892 47.5305 57.9277 47.4917ZM56.327 47.1086C56.3548 47.1197 56.3826 47.1308 56.4103 47.1387C56.3873 47.1117 56.3572 47.1054 56.327 47.1086ZM57.0615 42.0933C57.0116 42.1099 57.0116 42.1226 57.0615 42.0933V42.0933Z" fill="#73A729"/>
<path fill-rule="evenodd" clip-rule="evenodd" d="M56.1842 80.9606C56.1327 80.9059 56.0986 80.8099 56.0795 80.752C56.0026 80.5181 55.9621 80.2706 55.9312 80.0271C55.8114 79.103 55.9034 78.0878 56.0771 77.1748C56.4277 75.3227 57.1852 73.5666 57.903 71.8335C58.3234 70.8214 58.7541 69.8109 59.1539 68.7893C59.4236 68.0977 59.6869 67.4068 59.9415 66.7088C60.5927 64.8409 60.9758 62.9626 61.3177 61.0169C61.4232 60.4236 61.516 59.8208 61.5969 59.2244C61.7531 58.0766 61.8975 56.9344 62.0196 55.7812C61.8697 55.7716 61.727 55.7455 61.6016 55.7114C61.3272 55.6368 61.1741 55.2156 61.3724 54.8944L61.3177 54.8539C60.8219 54.3788 60.7315 53.6007 61.5858 53.5135C61.3288 53.0796 61.1408 53.2747 61.0432 52.6314C61.0266 52.3697 61.2558 52.1476 61.4779 52.2824C61.2511 52.1476 60.7101 51.7233 60.9005 51.3187C60.9719 51.1656 61.2098 51.1252 61.2154 50.9904C61.2154 50.9689 60.9631 50.7373 60.9861 50.286C60.9972 50.0893 61.1408 50.0219 61.2622 49.9362C60.4761 49.9902 60.58 48.5688 61.1273 48.5307C60.6173 48.2975 60.676 47.4361 61.2852 47.2021C60.6808 46.8999 60.5911 46.3836 61.2162 46.0298C61.1503 45.7808 61.1662 45.9243 61.0202 45.561C60.952 45.1946 60.9671 45.013 61.3026 44.9947C60.7379 44.7607 60.6871 44.1579 60.952 43.8739C61.1503 43.6598 61.4121 43.8383 61.5644 43.9358C61.4946 43.8041 61.1662 43.5971 61.2883 43.0173C60.4317 42.8341 60.7164 42.313 60.7997 42.1599C60.975 41.8355 61.5009 41.6078 61.8697 41.6411C62.5439 40.1722 63.4735 41.7982 62.6058 42.5565C62.8779 42.769 63.5188 42.9435 63.0167 43.9858C63.6679 43.9533 63.5997 45.1359 63.0444 45.3524C63.7432 45.3477 63.7686 46.1956 63.0754 46.5644C63.882 46.6644 63.5021 47.6439 63.1039 47.659C63.2895 47.7106 63.7884 48.0603 63.1729 48.7909C63.6925 48.8448 63.5021 49.6427 63.0468 49.7268C64.1438 49.9497 63.8257 51.1315 63.1237 51.2973C63.6227 51.2989 63.6441 52.3015 62.7708 52.7774C63.077 52.7726 63.8781 53.4722 63.0111 54.3447C63.207 55.2743 62.8779 55.6416 62.448 55.7486C62.4369 55.9533 62.425 56.1579 62.4139 56.3626C62.3615 57.2509 62.2877 58.1528 62.1918 59.038C61.9102 61.6079 61.558 64.1682 60.8045 66.6485C60.5832 67.3743 60.3167 68.1024 60.0573 68.8187C59.2205 71.1252 58.2393 73.3786 57.4771 75.713C57.2756 76.3285 57.0861 76.9392 56.9282 77.5674C56.8441 77.9037 56.7712 78.2385 56.7045 78.5748C56.8426 78.2091 56.9988 77.8514 57.1654 77.5111C58.0609 75.6733 59.322 74.0981 60.4872 72.4284C60.933 71.7931 61.3423 71.145 61.7428 70.4812C61.8356 70.3273 61.9364 70.1797 62.0307 70.029C62.1918 69.7744 62.3472 69.5135 62.5027 69.2541C62.9516 68.5133 63.3696 67.7431 63.7638 66.9713C65.5088 63.5654 66.7724 59.7851 67.3379 55.9953C67.468 55.126 67.5767 54.2265 67.6219 53.3493C67.6314 53.1478 67.6409 52.9352 67.6592 52.7353C67.6623 52.7123 67.6687 52.5712 67.6885 52.5632C67.7194 52.5712 67.7424 52.7401 67.7488 52.7695C67.7845 52.9804 67.7924 53.2192 67.8019 53.4341C67.8479 54.4264 67.7757 55.4694 67.6639 56.4538C67.3102 59.5868 66.4424 62.7191 65.2209 65.6229C64.9822 66.1932 64.7299 66.7572 64.4642 67.3164C64.3421 67.5694 64.216 67.8208 64.0922 68.0731C63.6116 69.0542 63.0539 70.0029 62.4924 70.9404L62.4963 70.9301C62.298 71.2767 62.1005 71.6194 61.8927 71.9589C61.7071 72.2611 61.5128 72.5561 61.3209 72.8559C60.9036 73.5032 60.4515 74.1369 60.0161 74.7738C59.1309 76.0628 58.2608 77.3612 57.5231 78.7437C57.209 79.3354 56.9401 79.9398 56.6459 80.5387C56.5745 80.6854 56.5015 80.8393 56.4134 80.9757C56.3714 81.0408 56.331 81.1058 56.2508 81.1248C56.204 81.0915 56.1906 81.0233 56.1842 80.9606ZM62.4448 55.9691C62.4416 55.9715 62.4384 55.9723 62.4369 55.9739H62.4289C62.4337 55.9723 62.4384 55.9715 62.4448 55.9691ZM61.3724 54.892V54.8944C61.3367 54.8682 61.3581 54.8841 61.378 54.8991C61.3724 54.8841 61.3645 54.8746 61.3724 54.892ZM61.3724 54.892L61.3177 54.8539C61.3304 54.8555 61.3439 54.8603 61.3724 54.892ZM63.1237 51.2973C63.0785 51.2957 63.0278 51.3021 62.9762 51.3156C63.0262 51.314 63.0754 51.3092 63.1237 51.2973ZM61.1273 48.5307C61.1924 48.5624 61.2677 48.5815 61.351 48.5894C61.2701 48.5458 61.1955 48.5283 61.1273 48.5307Z" fill="#4C6E1C"/>
<path fill-rule="evenodd" clip-rule="evenodd" d="M66.2446 37.8552C65.2119 37.5109 64.5638 36.5305 64.6011 35.497C64.5979 35.3313 64.6257 35.1655 64.6725 34.9997C64.6852 34.949 64.7003 34.9006 64.7161 34.8514C64.828 34.504 65.0136 34.2018 65.2507 33.9575C66.3279 32.5662 68.3893 31.2575 68.6344 30.5H68.636C68.3893 31.2575 69.2809 33.5506 69.3324 35.3154C69.3784 35.6557 69.3507 36.0102 69.2372 36.3561C69.2222 36.4036 69.2063 36.4489 69.1881 36.4949C69.1286 36.6614 69.0501 36.8137 68.9493 36.9478C68.3727 37.7988 67.2765 38.1994 66.2446 37.8552Z" fill="#99CEDE"/>
<path d="M33.346 88.2663C32.9447 88.2131 32.5544 88.1473 32.1562 88.0712C33.4134 88.1299 34.6492 88.1346 35.9032 88.0164C37.4182 87.8737 38.9134 87.5286 40.3379 86.994C41.4507 86.5768 42.4985 86.0613 43.5638 85.5393C45.2516 84.7128 46.9157 83.9268 48.8321 83.9292C49.657 83.9308 50.4089 84.064 51.1997 84.2909C51.7295 84.4432 52.2396 84.6645 52.7559 84.8556C53.4182 85.1007 54.0861 85.3315 54.7627 85.5346C56.1039 85.9367 57.4666 86.254 58.8579 86.4245C60.3855 86.6109 61.9259 86.6268 63.4559 86.4531C65.6506 86.204 67.7343 85.6337 69.8418 84.992C70.4058 84.8207 70.9673 84.6415 71.5297 84.4646C71.9199 84.3416 72.3141 84.206 72.7099 84.1029C73.2477 83.9617 73.7918 83.8522 74.3447 83.7912C76.0889 83.5968 77.8474 83.811 79.5019 84.39C79.9953 84.5629 80.4553 84.762 80.9273 84.9849C81.5142 85.2625 82.1059 85.6202 82.6374 85.993C82.888 86.1683 83.1482 86.3579 83.3806 86.557C83.5876 86.7362 83.793 86.9084 83.9905 87.1003C84.1 87.2058 84.211 87.3335 84.3245 87.4311C84.2856 87.4168 84.2436 87.3708 84.2079 87.3462C84.142 87.301 84.0778 87.2471 84.0127 87.2003C83.8057 87.048 83.5979 86.8981 83.3838 86.7553C82.7516 86.3357 82.1067 85.9724 81.4214 85.6464C79.5115 84.7374 77.3984 84.2782 75.283 84.4114C74.5668 84.4566 73.8624 84.5851 73.17 84.7684L72.4696 84.9849L69.8823 85.863C67.4845 86.6403 65.0938 87.2994 62.5676 87.4771C60.9796 87.5889 59.4385 87.4977 57.868 87.2486C57.2445 87.1495 56.629 87.0131 56.0151 86.8663C54.558 86.5165 53.1152 86.0065 51.7256 85.4473C50.5041 84.9548 49.2628 84.6946 47.9445 84.8501C46.7968 84.9857 45.7299 85.4037 44.6782 85.8653C43.7391 86.277 42.8198 86.7188 41.8679 87.1043C40.579 87.6262 39.2766 88.0069 37.9036 88.2211C36.422 88.4519 34.8317 88.4614 33.346 88.2663Z" fill="#886740"/>
<path d="M59.0744 90.1513C58.2106 89.9902 57.3611 89.7626 56.518 89.5175C55.9207 89.343 55.3306 89.1407 54.7436 88.9345C54.1591 88.7283 53.5745 88.5046 53.001 88.269C52.7995 88.1921 52.6005 88.112 52.3982 88.0374C51.9128 87.8582 51.4035 87.6987 50.9007 87.5766C49.6022 87.2601 48.3435 87.1602 47.0204 87.3664C45.5864 87.5909 44.2364 88.158 42.8991 88.6997C41.7236 89.1764 40.5116 89.6444 39.275 89.9331C38.7682 90.0513 38.2685 90.152 37.7529 90.2258C35.8882 90.4923 34.0036 90.4122 32.1562 90.0513C33.484 90.11 34.7825 90.1203 36.1055 89.9799C37.4261 89.8403 38.6873 89.55 39.9429 89.1233C40.7979 88.8322 41.6221 88.4745 42.4486 88.1136C43.3123 87.7352 44.1705 87.3386 45.0629 87.0293C46.1805 86.6422 47.3734 86.3789 48.5624 86.3892C48.8931 86.3924 49.2247 86.4003 49.5546 86.4352C50.3835 86.524 51.1941 86.6835 51.9913 86.9309C52.3006 87.0277 52.6036 87.1284 52.909 87.2379C53.2183 87.3482 53.5237 87.4751 53.8307 87.5925C54.3351 87.7852 54.8428 87.97 55.3544 88.1445C57.5689 88.8996 59.9572 89.5143 62.3098 89.55C63.2497 89.5643 64.1825 89.4889 65.1049 89.3033C65.5047 89.2232 65.8934 89.1225 66.2852 89.0107C67.7708 88.5847 69.1787 87.8923 70.5993 87.2974C71.2878 87.0087 71.9747 86.7382 72.6822 86.501C72.8836 86.4336 73.0851 86.3718 73.2882 86.3131L73.891 86.1441L74.2225 86.0259C74.3423 85.9847 74.4629 85.9474 74.5874 85.9141C74.9451 85.8189 75.2902 85.7594 75.6566 85.715C76.0151 85.6714 76.376 85.6714 76.7361 85.6793C77.0383 85.6864 77.3429 85.7237 77.6419 85.7658C78.0695 85.8252 78.4843 85.9284 78.8983 86.0458C80.0722 86.3781 81.2366 86.9754 82.244 87.6583C82.7572 88.0057 83.2283 88.3848 83.6899 88.7965C83.8248 88.9179 83.9564 89.0448 84.0849 89.1725C84.1635 89.251 84.2396 89.339 84.3237 89.4112C84.269 89.3874 84.1508 89.2851 84.0976 89.2431C83.9628 89.1384 83.8224 89.0368 83.6836 88.9369C83.2251 88.6061 82.7564 88.3023 82.2686 88.0152C81.4087 87.5084 80.518 87.107 79.5725 86.789C79.3497 86.7144 79.1228 86.6541 78.8967 86.5938C78.6334 86.524 78.3487 86.4638 78.0798 86.4225C77.9148 86.3979 77.7506 86.3702 77.5848 86.3559C77.4143 86.3416 77.2438 86.321 77.0732 86.3178C76.9249 86.3146 76.7805 86.3099 76.6314 86.3107C76.2761 86.3131 75.8898 86.348 75.54 86.4138C75.3806 86.4439 75.2164 86.4733 75.0601 86.5169C74.8603 86.574 74.6715 86.6287 74.4748 86.6985C74.3558 86.7406 74.2408 86.7961 74.1226 86.8381C74.0544 86.8627 73.979 86.8826 73.9084 86.9032C72.4664 87.3252 71.0776 87.9819 69.7157 88.6077C68.7893 89.0329 67.8271 89.4691 66.8539 89.7808C66.4383 89.9133 66.0306 90.0331 65.6062 90.1354C65.0002 90.2821 64.3887 90.3741 63.7692 90.4368C62.2067 90.5962 60.6116 90.4384 59.0744 90.1513Z" fill="#99CEDE"/>
<path d="M32.7014 85.9417C32.2651 85.8893 31.9534 85.4935 32.0057 85.0581C32.0573 84.6226 32.4531 84.3109 32.8885 84.3625C34.4194 84.5544 35.9693 84.5846 37.5001 84.3728C38.6804 84.2086 39.8416 83.8889 40.9504 83.4543C43.2744 82.5421 45.4446 81.1683 47.9423 80.7662C48.5102 80.6742 49.0726 80.625 49.6484 80.6226C51.2372 80.6171 52.8632 80.9692 54.3552 81.4991C54.8295 81.6569 55.3014 81.8243 55.7789 81.9758C57.2757 82.4533 58.7994 82.8768 60.3429 83.1767C62.348 83.5653 64.3484 83.7604 66.3861 83.5479C67.5085 83.4305 68.611 83.1656 69.6826 82.8181C70.2457 82.6349 70.8017 82.4358 71.3625 82.2478C71.7544 82.1162 72.1517 81.9853 72.5523 81.8814L73.4811 81.6768L73.9832 81.511C74.1672 81.457 74.3536 81.4095 74.5471 81.3682C76.5341 80.9447 78.8462 81.323 80.6824 82.1614C81.6104 82.585 82.5511 83.156 83.2436 83.9159C83.4093 84.0975 83.5418 84.28 83.6846 84.4791C83.6505 84.4561 83.6306 84.4148 83.6045 84.3839C83.5458 84.3149 83.4855 84.2443 83.422 84.1792C83.2555 84.0079 83.081 83.8437 82.8906 83.6986C82.241 83.2028 81.5644 82.8451 80.8053 82.5461C79.0976 81.8743 76.9592 81.5903 75.1555 81.9782C74.8367 82.0464 74.5313 82.1281 74.2235 82.236C74.1141 82.2748 74.0054 82.3169 73.8991 82.3605C73.8 82.4017 73.727 82.4374 73.6231 82.4636C73.2075 82.5683 72.8148 82.6825 72.4111 82.8269C71.6433 83.0997 70.8961 83.4289 70.1339 83.716C69.1781 84.0753 68.2398 84.3656 67.2364 84.5647C65.3344 84.9423 63.4053 84.9209 61.4859 84.7004C60.5618 84.5949 59.6314 84.4323 58.7224 84.2364C57.0821 83.8826 55.4799 83.4241 53.8872 82.8975C53.5096 82.7793 53.1376 82.6627 52.7545 82.5635C51.8281 82.3248 50.9009 82.1757 49.9435 82.1558C49.4414 82.1455 48.91 82.1773 48.4142 82.2558C48.2477 82.2827 48.0851 82.3137 47.9193 82.3446C47.6298 82.3986 47.3157 82.481 47.0373 82.5707C46.8017 82.6452 46.5693 82.719 46.3377 82.8047C45.604 83.0743 44.8806 83.4083 44.1763 83.7446C42.7708 84.4164 41.3637 85.0684 39.8598 85.4927C38.3115 85.9298 36.7339 86.1273 35.1245 86.1083C34.3099 86.0987 33.5096 86.0377 32.7014 85.9417Z" fill="#C36F0B"/>
<path d="M50.4257 75.7549L50.2099 74.9704L50.0243 74.1772L49.7951 73.3999L49.5175 72.6377C49.5143 72.6258 49.508 72.6162 49.5048 72.6051L51.3791 65.3015C52.2651 65.5744 53.0051 65.5228 53.9609 65.3586C54.7311 64.8613 54.6168 64.3418 54.1489 64.1697C53.132 63.2385 52.2405 63.0307 51.2625 63.3233C51.3759 62.9069 51.2672 62.462 50.9452 62.0884C50.6771 61.7719 50.2829 61.5609 50.1774 61.1318C49.8133 61.6529 50.0378 62.2541 50.3559 62.7427C50.551 63.0402 50.7422 63.2075 50.8611 63.4788L50.8397 63.4883C50.616 63.6105 50.4487 63.7858 50.3947 64.0007C50.1727 64.0364 49.9498 64.08 49.7221 64.1371C49.5421 64.1792 49.2597 64.3172 48.9853 64.2426C48.7624 64.176 48.4649 63.8104 48.3174 63.6398C48.1794 63.4772 48.0446 63.3099 47.9097 63.1409C47.9486 63.4741 47.9906 63.8349 48.1025 64.1498C48.1731 64.345 48.246 64.5012 48.3793 64.663C48.5086 64.8177 48.6823 64.9359 48.8798 64.9795C49.3097 65.081 49.7531 64.8661 50.1576 64.5821C49.688 65.1199 49.37 65.5807 48.8893 66.8514C48.2976 67.6517 47.3505 68.0404 46.6652 67.9492C42.9111 66.9323 39.9628 67.6882 37.1835 68.8169C37.1169 68.8169 35.6027 69.3824 34.911 69.8449C34.037 70.4334 33.1058 71.1171 32.614 72.0221C32.1508 72.8796 32.3332 73.273 32.7829 72.6178C33.2826 71.8905 33.9394 71.1608 34.5113 71.2044C34.1655 72.5092 33.9473 73.8409 34.0695 75.248C33.9672 75.4574 33.8633 75.6684 33.7736 75.8865C33.1256 77.4554 32.8266 79.0243 33.0701 80.7217C33.1145 81.0374 33.1986 81.3293 33.2787 81.6371C33.3168 81.093 33.3398 80.5306 33.4357 79.9928C33.5222 79.5121 33.6015 79.0505 33.707 78.573C33.9132 77.6339 34.2416 76.7194 34.6445 75.8492C34.4526 76.8939 34.4415 77.9639 34.6445 79.0101C34.7437 79.5312 34.9174 79.9524 35.1157 80.4362C35.0895 80.0301 35.0475 79.6335 35.0443 79.2226C35.0356 77.7235 35.1823 76.3735 35.5995 74.9617C36.4395 74.2621 37.3834 73.6172 38.4161 73.4951C41.9814 73.0802 45.0392 73.1588 48.2722 72.7963L48.1437 73.672L48.0588 74.6515L48.0342 75.6375L47.9692 76.6186C47.9613 76.6702 47.9986 76.7178 48.0493 76.7249C48.0993 76.7313 48.1485 76.694 48.1532 76.6448L48.3428 75.6787L48.5688 74.7213L48.7394 73.7537L48.8512 72.7289C48.9218 72.717 49.063 72.7606 49.0741 72.7931L49.3255 73.5633L49.6214 74.3184L49.9664 75.0561L50.2797 75.8048C50.294 75.8437 50.3392 75.8667 50.3773 75.8524C50.4177 75.8373 50.4384 75.7937 50.4257 75.7549Z" fill="#886740"/>
<path d="M108.156 80.248H102.674V81.8229H104.493V88.1672H106.32V81.8229H108.156V80.248Z" fill="black"/>
<path d="M117.496 84.8285C117.493 84.0375 117.34 83.4322 117.033 83.0128C116.729 82.5896 116.285 82.3799 115.705 82.3762C115.55 82.3762 115.385 82.3946 115.223 82.4406C115.053 82.4866 114.885 82.562 114.721 82.6669C114.553 82.7754 114.393 82.9226 114.243 83.1139H114.225V80.0454H112.42V88.1675H114.225V84.7457C114.225 84.5507 114.255 84.3907 114.309 84.2711C114.366 84.1515 114.434 84.0577 114.516 83.997C114.6 83.9326 114.684 83.8921 114.768 83.8719C114.848 83.8498 114.921 83.8388 114.979 83.8388C115.152 83.8425 115.296 83.8921 115.402 83.9841C115.505 84.0779 115.581 84.2085 115.628 84.3741C115.673 84.536 115.697 84.7237 115.697 84.9389V88.1675H117.496V84.8285Z" fill="black"/>
<path d="M126.513 86.7748C126.308 86.8432 126.087 86.8984 125.861 86.9402C125.627 86.9802 125.381 87.003 125.119 87.003C124.864 87.003 124.632 86.9687 124.423 86.8946C124.216 86.8204 124.05 86.7082 123.918 86.556C123.791 86.4039 123.718 86.2118 123.701 85.9836H126.988C127.011 85.8828 127.022 85.7611 127.03 85.6298C127.037 85.4929 127.041 85.3522 127.041 85.2114C127.037 84.5458 126.934 83.9962 126.732 83.5644C126.536 83.127 126.257 82.8094 125.903 82.5945C125.546 82.3853 125.139 82.2788 124.676 82.2788C124.238 82.2826 123.852 82.3644 123.516 82.5355C123.181 82.7029 122.9 82.9292 122.668 83.2221C122.436 83.5169 122.263 83.8497 122.142 84.2263C122.023 84.6047 121.965 85.0041 121.965 85.4301C121.965 86.0406 122.076 86.5713 122.3 87.0068C122.525 87.4442 122.845 87.7827 123.273 88.0167C123.697 88.2506 124.216 88.3666 124.83 88.3704C125.181 88.3704 125.516 88.3438 125.848 88.2886C126.176 88.2392 126.478 88.1574 126.753 88.0471L126.513 86.7748ZM123.692 84.7208C123.697 84.5971 123.722 84.464 123.756 84.3271C123.791 84.192 123.844 84.0627 123.914 83.9467C123.984 83.825 124.072 83.7318 124.184 83.6538C124.293 83.5797 124.423 83.5416 124.579 83.5416C124.738 83.5416 124.868 83.5797 124.971 83.65C125.077 83.7242 125.158 83.8174 125.217 83.9353C125.273 84.0513 125.316 84.1787 125.343 84.3157C125.365 84.4526 125.377 84.5895 125.377 84.7208H123.692Z" fill="black"/>
<path d="M141.249 84.453C141.502 84.3564 141.728 84.2135 141.93 84.0316C142.129 83.8441 142.29 83.6251 142.412 83.369C142.529 83.111 142.593 82.8307 142.593 82.5188C142.589 82.0882 142.514 81.7355 142.365 81.4534C142.217 81.1731 142.02 80.9504 141.776 80.787C141.533 80.62 141.27 80.5031 140.983 80.4269C140.697 80.3471 140.418 80.2989 140.14 80.2747C139.862 80.2562 139.609 80.245 139.391 80.2488C138.967 80.2488 138.567 80.2636 138.189 80.2952C137.813 80.323 137.482 80.362 137.193 80.4121V88.1672H139.032V85.1026H139.391C139.594 85.0989 139.766 85.1342 139.908 85.2066C140.046 85.2734 140.159 85.3996 140.249 85.5741C140.341 85.7541 140.414 86.001 140.473 86.3166C140.533 86.6228 140.59 86.905 140.653 87.1555C140.717 87.4061 140.776 87.6196 140.83 87.7941C140.885 87.9648 140.929 88.091 140.964 88.1672H142.878C142.84 88.0873 142.798 87.9704 142.746 87.8126C142.698 87.6586 142.652 87.4748 142.596 87.2688C142.547 87.0646 142.491 86.8474 142.439 86.6265C142.384 86.4001 142.334 86.1829 142.278 85.9695C142.188 85.5889 142.064 85.279 141.901 85.0265C141.742 84.7797 141.525 84.6015 141.249 84.4957V84.453ZM139.032 83.7847V81.652C139.084 81.6372 139.163 81.6242 139.26 81.6168C139.364 81.6056 139.484 81.6019 139.634 81.6019C139.739 81.6019 139.862 81.613 139.986 81.6446C140.113 81.6706 140.234 81.7244 140.351 81.8005C140.466 81.8766 140.559 81.9861 140.63 82.1253C140.705 82.2683 140.743 82.4502 140.743 82.6692C140.743 82.8864 140.694 83.0776 140.6 83.2446C140.5 83.4117 140.364 83.5416 140.178 83.6363C139.998 83.7291 139.776 83.7792 139.515 83.7847H139.032Z" fill="black"/>
<path d="M151.2 84.453C151.453 84.3564 151.679 84.2135 151.88 84.0316C152.08 83.8441 152.241 83.6251 152.363 83.369C152.48 83.111 152.543 82.8307 152.543 82.5188C152.539 82.0882 152.465 81.7355 152.315 81.4534C152.166 81.1731 151.97 80.9504 151.727 80.787C151.484 80.62 151.221 80.5031 150.937 80.4269C150.648 80.3471 150.368 80.2989 150.091 80.2747C149.813 80.2562 149.56 80.245 149.341 80.2488C148.916 80.2488 148.517 80.2636 148.14 80.2952C147.764 80.323 147.433 80.362 147.143 80.4121V88.1672H148.983V85.1026H149.341C149.544 85.0989 149.717 85.1342 149.859 85.2066C149.997 85.2734 150.11 85.3996 150.2 85.5741C150.29 85.7541 150.365 86.001 150.424 86.3166C150.483 86.6228 150.541 86.905 150.604 87.1555C150.667 87.4061 150.727 87.6196 150.78 87.7941C150.836 87.9648 150.878 88.091 150.914 88.1672H152.829C152.79 88.0873 152.748 87.9704 152.697 87.8126C152.649 87.6586 152.601 87.4748 152.547 87.2688C152.495 87.0646 152.442 86.8474 152.39 86.6265C152.334 86.4001 152.285 86.1829 152.229 85.9695C152.139 85.5889 152.014 85.279 151.852 85.0265C151.692 84.7797 151.476 84.6015 151.2 84.4957V84.453ZM148.983 83.7847V81.652C149.035 81.6372 149.113 81.6242 149.211 81.6168C149.313 81.6056 149.435 81.6019 149.585 81.6019C149.69 81.6019 149.813 81.613 149.937 81.6446C150.068 81.6706 150.184 81.7244 150.301 81.8005C150.416 81.8766 150.51 81.9861 150.581 82.1253C150.656 82.2683 150.694 82.4502 150.694 82.6692C150.694 82.8864 150.648 83.0776 150.548 83.2446C150.451 83.4117 150.315 83.5416 150.129 83.6363C149.949 83.7291 149.726 83.7792 149.466 83.7847H148.983Z" fill="black"/>
<path d="M160.989 80.248H158.742L156.688 88.1672H158.479L158.904 86.3195H160.695L161.15 88.1672H162.982L160.989 80.248ZM159.115 84.9577L159.469 83.3735C159.499 83.2165 159.532 83.0447 159.571 82.8485C159.607 82.6524 159.646 82.4543 159.684 82.2563C159.721 82.0564 159.754 81.8771 159.793 81.7127H159.811C159.846 81.8733 159.879 82.0564 159.92 82.2507C159.958 82.4469 159.995 82.643 160.034 82.8373C160.076 83.0335 160.109 83.2128 160.144 83.3735L160.486 84.9577H159.115Z" fill="black"/>
<path d="M184.707 80.248H183.078V82.133C183.078 82.5739 183.086 82.998 183.097 83.4108C183.108 83.8256 183.129 84.2141 183.15 84.5859C183.174 84.9577 183.2 85.2958 183.232 85.604H183.21C183.108 85.335 182.997 85.0511 182.873 84.754C182.751 84.4551 182.623 84.1618 182.495 83.8741C182.365 83.5864 182.238 83.323 182.115 83.0858L180.755 80.248H178.818V88.1672H180.443V86.2205C180.443 85.5125 180.434 84.8568 180.421 84.2646C180.4 83.6668 180.377 83.1399 180.349 82.6766H180.393C180.49 82.9513 180.605 83.2427 180.729 83.5491C180.855 83.8555 180.983 84.1581 181.117 84.4551C181.252 84.754 181.384 85.0324 181.51 85.2865L182.901 88.1672H184.707V80.248Z" fill="black"/>
<path d="M193.747 86.7748C193.546 86.8432 193.34 86.8984 193.117 86.9402C192.898 86.9802 192.661 87.003 192.405 87.003C192.164 87.003 191.942 86.9687 191.741 86.8946C191.541 86.8204 191.377 86.7082 191.255 86.556C191.128 86.4039 191.061 86.2118 191.043 85.9836H194.203C194.222 85.8828 194.236 85.7611 194.24 85.6298C194.249 85.4929 194.252 85.3522 194.252 85.2114C194.249 84.5458 194.151 83.9962 193.959 83.5644C193.765 83.127 193.499 82.8094 193.162 82.5945C192.82 82.3853 192.427 82.2788 191.978 82.2788C191.563 82.2826 191.192 82.3644 190.869 82.5355C190.547 82.7029 190.272 82.9292 190.053 83.2221C189.83 83.5169 189.663 83.8497 189.549 84.2263C189.433 84.6047 189.379 85.0041 189.379 85.4301C189.379 86.0406 189.486 86.5713 189.701 87.0068C189.911 87.4442 190.225 87.7827 190.632 88.0167C191.043 88.2506 191.541 88.3666 192.126 88.3704C192.463 88.3704 192.791 88.3438 193.11 88.2886C193.425 88.2392 193.714 88.1574 193.973 88.0471L193.747 86.7748ZM191.036 84.7208C191.043 84.5971 191.061 84.464 191.096 84.3271C191.132 84.192 191.181 84.0627 191.252 83.9467C191.317 83.825 191.404 83.7318 191.511 83.6538C191.616 83.5797 191.741 83.5416 191.889 83.5416C192.041 83.5416 192.168 83.5797 192.264 83.65C192.364 83.7242 192.441 83.8174 192.498 83.9353C192.557 84.0513 192.597 84.1787 192.621 84.3157C192.646 84.4526 192.657 84.5895 192.657 84.7208H191.036Z" fill="black"/>
<path d="M199.014 82.4318H198.312V83.7473H199.014V86.1723C199.011 86.3065 199.014 86.4709 199.029 86.6561C199.044 86.8413 199.076 87.0341 199.134 87.2326C199.191 87.431 199.282 87.6163 199.412 87.7864C199.536 87.9603 199.715 88.0945 199.939 88.2041C200.161 88.3118 200.45 88.3666 200.798 88.3704C201.037 88.3666 201.254 88.3553 201.441 88.3307C201.63 88.3042 201.782 88.274 201.895 88.2362L201.883 86.8262C201.811 86.8451 201.74 86.8621 201.673 86.8697C201.599 86.8735 201.515 86.8773 201.417 86.8773C201.204 86.8791 201.041 86.8111 200.939 86.6675C200.83 86.5238 200.776 86.2838 200.776 85.9436V83.7473H201.967V82.4318H200.776V80.8574L199.014 81.3639V82.4318Z" fill="black"/>
<path d="M212.163 82.4819L211.784 84.7344C211.734 85.0512 211.683 85.368 211.642 85.6774C211.595 85.9868 211.557 86.2925 211.525 86.5891H211.495C211.454 86.2889 211.403 85.9831 211.341 85.6774C211.279 85.3717 211.215 85.0549 211.146 84.7344L210.652 82.4819H209.231L208.704 84.8026C208.646 85.0862 208.586 85.3753 208.52 85.6774C208.45 85.9831 208.392 86.2889 208.347 86.5891H208.315C208.285 86.2889 208.242 85.9868 208.201 85.6848C208.154 85.3845 208.113 85.0825 208.066 84.7823L207.709 82.4819H205.824L207.39 88.1674H209.034L209.53 86.311C209.596 86.0476 209.661 85.7732 209.719 85.4822C209.778 85.1912 209.826 84.8707 209.87 84.5318H209.9C209.947 84.8707 209.995 85.1875 210.05 85.4785C210.099 85.7676 210.157 86.0439 210.219 86.3073L210.662 88.1674H212.31L213.947 82.4819H212.163Z" fill="black"/>
<path d="M220.705 82.2788C220.313 82.2826 219.953 82.349 219.628 82.4857C219.303 82.6205 219.016 82.8179 218.775 83.0837C218.532 83.3437 218.346 83.6664 218.214 84.048C218.079 84.4277 218.013 84.8681 218.01 85.3616C218.013 85.9918 218.125 86.5291 218.346 86.979C218.567 87.427 218.874 87.7686 219.266 88.0097C219.662 88.247 220.119 88.3666 220.645 88.3704C220.893 88.3704 221.143 88.3343 221.394 88.266C221.644 88.1996 221.879 88.0914 222.108 87.9395C222.332 87.7914 222.535 87.5978 222.714 87.3548C222.889 87.1175 223.032 86.8271 223.134 86.4854C223.234 86.1399 223.286 85.7432 223.289 85.2876C223.289 84.8453 223.231 84.4409 223.11 84.0746C222.995 83.7101 222.825 83.3912 222.601 83.1254C222.382 82.8578 222.108 82.649 221.79 82.499C221.469 82.3566 221.109 82.2826 220.705 82.2788ZM221.507 85.3199C221.507 85.635 221.476 85.9216 221.416 86.1817C221.352 86.4379 221.262 86.6449 221.136 86.8005C221.012 86.9562 220.855 87.0321 220.665 87.0378C220.466 87.0321 220.302 86.96 220.172 86.8081C220.044 86.66 219.946 86.4569 219.887 86.2007C219.823 85.9406 219.794 85.6502 219.794 85.3199C219.794 85.1129 219.809 84.9117 219.838 84.7086C219.863 84.5093 219.913 84.327 219.98 84.16C220.048 83.9929 220.137 83.8658 220.25 83.7651C220.362 83.6664 220.499 83.6152 220.665 83.6133C220.815 83.6133 220.944 83.6626 221.05 83.7557C221.158 83.8525 221.244 83.9778 221.311 84.141C221.379 84.3043 221.427 84.4827 221.461 84.6896C221.49 84.8908 221.507 85.1015 221.507 85.3199Z" fill="black"/>
<path d="M231.208 82.3106C231.153 82.2975 231.097 82.2938 231.042 82.2863C230.983 82.2825 230.909 82.2788 230.824 82.2788C230.661 82.2788 230.494 82.3181 230.316 82.391C230.141 82.4677 229.978 82.5818 229.823 82.7389C229.667 82.8998 229.54 83.1037 229.442 83.3562H229.4L229.326 82.3929H227.756C227.768 82.651 227.775 82.9335 227.785 83.2365C227.796 83.5433 227.796 83.88 227.8 84.2597V88.1673H229.627V85.2754C229.627 85.1707 229.631 85.0716 229.645 84.9762C229.656 84.8789 229.675 84.8003 229.701 84.7292C229.756 84.5609 229.834 84.4206 229.944 84.3121C230.048 84.2055 230.172 84.1288 230.312 84.0783C230.456 84.0259 230.604 84.0035 230.761 84.0035C230.856 84.0035 230.937 84.0072 231.007 84.0091C231.08 84.0184 231.146 84.0296 231.208 84.0446V82.3106Z" fill="black"/>
<path d="M238.96 84.8285L240.766 82.4885H238.633L237.712 84.1515C237.645 84.2637 237.586 84.376 237.532 84.4974C237.473 84.6206 237.414 84.7531 237.356 84.9003H237.32V80.0454H235.473V88.1675H237.32V86.4235L237.687 85.8992L238.771 88.1675H240.955L238.96 84.8285Z" fill="black"/>
<path d="M112.986 43.191C113.591 42.952 114.132 42.6019 114.618 42.1427C115.1 41.6835 115.484 41.1321 115.77 40.496C116.054 39.8561 116.2 39.156 116.205 38.3806C116.196 37.3135 116.015 36.4309 115.659 35.7327C115.302 35.0344 114.835 34.4849 114.253 34.0746C113.672 33.6681 113.04 33.3708 112.357 33.1769C111.673 32.985 110.994 32.8626 110.329 32.8081C109.663 32.7535 109.065 32.7271 108.537 32.7347C107.526 32.7384 106.565 32.7761 105.665 32.8532C104.764 32.9266 103.968 33.0226 103.283 33.1393V52.4297H107.683V44.8095H108.537C109.027 44.802 109.441 44.8867 109.773 45.0636C110.106 45.2386 110.379 45.5454 110.596 45.9857C110.811 46.4242 110.987 47.0378 111.125 47.8244C111.271 48.5942 111.417 49.2924 111.566 49.9172C111.714 50.5401 111.856 51.069 111.987 51.5C112.112 51.9328 112.225 52.2415 112.309 52.4297H116.888C116.793 52.2339 116.688 51.9441 116.574 51.5508C116.46 51.1612 116.34 50.7114 116.218 50.1976C116.091 49.6895 115.966 49.1531 115.835 48.5942C115.708 48.039 115.579 47.4913 115.452 46.9606C115.235 46.0234 114.936 45.2442 114.549 44.6251C114.165 44.004 113.646 43.5617 112.986 43.2907V43.191ZM107.683 41.5217V36.2257C107.808 36.1919 107.993 36.1618 108.231 36.1373C108.468 36.1147 108.762 36.1034 109.115 36.1034C109.379 36.0996 109.663 36.1335 109.97 36.2032C110.271 36.2766 110.559 36.4064 110.834 36.5965C111.11 36.7847 111.336 37.0557 111.508 37.4057C111.684 37.7558 111.776 38.2075 111.78 38.7627C111.78 39.299 111.662 39.7714 111.432 40.1892C111.202 40.6014 110.865 40.9251 110.428 41.1603C109.992 41.3993 109.459 41.5179 108.838 41.5217H107.683Z" fill="#4C6E1C"/>
<path d="M129.226 48.8028C128.736 48.9665 128.21 49.1004 127.659 49.199C127.103 49.2976 126.509 49.3515 125.879 49.3515C125.272 49.3553 124.715 49.2641 124.213 49.0874C123.715 48.9125 123.311 48.6428 123.001 48.28C122.691 47.9191 122.518 47.4578 122.479 46.9016H130.366C130.416 46.6579 130.449 46.3751 130.468 46.0477C130.484 45.724 130.492 45.3929 130.492 45.0506C130.484 43.4582 130.239 42.1393 129.758 41.0994C129.28 40.0595 128.614 39.2819 127.76 38.7759C126.915 38.2643 125.928 38.0132 124.814 38.0132C123.768 38.0206 122.846 38.2271 122.036 38.6271C121.232 39.0308 120.553 39.5795 119.996 40.2809C119.441 40.984 119.026 41.784 118.74 42.6918C118.456 43.5977 118.312 44.5595 118.309 45.5752C118.312 47.0467 118.583 48.3117 119.117 49.3627C119.65 50.4119 120.428 51.2174 121.448 51.7811C122.472 52.341 123.719 52.6275 125.185 52.6331C126.022 52.6331 126.838 52.5661 127.633 52.4415C128.426 52.3112 129.147 52.1178 129.8 51.8536L129.226 48.8028ZM122.453 43.873C122.472 43.5717 122.522 43.2592 122.608 42.9317C122.695 42.6081 122.822 42.2993 122.988 42.0165C123.16 41.7319 123.376 41.4993 123.636 41.3207C123.899 41.1422 124.217 41.0454 124.587 41.0417C124.966 41.0454 125.279 41.1366 125.528 41.3096C125.773 41.4807 125.971 41.7058 126.113 41.9867C126.257 42.2695 126.355 42.5727 126.415 42.902C126.476 43.2294 126.502 43.5531 126.502 43.873H122.453Z" fill="#4C6E1C"/>
<path d="M140.613 38.2158L139.265 44.4789C139.127 45.1134 139.007 45.7255 138.899 46.3131C138.796 46.9007 138.702 47.5165 138.612 48.1661H138.538C138.439 47.5278 138.335 46.9045 138.229 46.2999C138.123 45.7011 138.001 45.0928 137.863 44.4789L136.461 38.2384H131.711L136.286 52.4296H140.54L145.112 38.2158H140.613Z" fill="#4C6E1C"/>
<path d="M151.203 34.395C151.199 33.9451 151.103 33.5495 150.915 33.212C150.731 32.8745 150.465 32.6082 150.133 32.417C149.801 32.2239 149.411 32.1283 148.968 32.1245C148.535 32.1283 148.149 32.2239 147.817 32.417C147.479 32.6082 147.219 32.8745 147.027 33.212C146.834 33.5495 146.74 33.9451 146.736 34.395C146.74 34.8282 146.834 35.2125 147.024 35.5463C147.212 35.8837 147.472 36.1481 147.806 36.3412C148.138 36.5362 148.527 36.6318 148.968 36.6375C149.397 36.6318 149.779 36.5418 150.111 36.3525C150.446 36.165 150.71 35.9025 150.904 35.5687C151.1 35.235 151.199 34.8432 151.203 34.395ZM151.153 38.2349H146.786V52.4299H151.153V38.2349Z" fill="#4C6E1C"/>
<path d="M154.946 38.1887H153.234V41.3898H154.946V47.2858C154.939 47.6194 154.953 48.0093 154.989 48.4628C155.022 48.9163 155.108 49.3849 155.245 49.8647C155.385 50.3482 155.61 50.7961 155.922 51.2141C156.232 51.6339 156.662 51.9712 157.21 52.2298C157.762 52.4885 158.461 52.6234 159.314 52.6328C159.9 52.6272 160.426 52.5972 160.888 52.5316C161.349 52.4697 161.718 52.3929 161.995 52.3048L161.973 48.8732C161.79 48.9238 161.616 48.9576 161.447 48.9763C161.275 48.9932 161.068 49.0044 160.83 49.0007C160.308 49.0119 159.917 48.8395 159.655 48.4909C159.395 48.1404 159.266 47.5538 159.266 46.7311V41.3898H162.168V38.1887H159.266V34.3579L154.946 35.5892V38.1887Z" fill="#4C6E1C"/>
<path d="M175.549 44.08C175.554 43.2959 175.468 42.5378 175.293 41.8149C175.121 41.0958 174.818 40.4492 174.387 39.8788C173.959 39.3083 173.361 38.8549 172.605 38.5223C171.846 38.1879 170.882 38.0169 169.722 38.0132C168.908 38.0169 168.166 38.0819 167.496 38.212C166.831 38.3402 166.246 38.4963 165.749 38.6803C165.25 38.8624 164.849 39.0407 164.546 39.2117L165.351 42.0584C165.809 41.7778 166.338 41.553 166.939 41.3783C167.535 41.2055 168.17 41.1144 168.843 41.1107C169.433 41.1144 169.891 41.1943 170.221 41.3504C170.554 41.5065 170.783 41.7239 170.918 42.0008C171.047 42.2758 171.108 42.5954 171.105 42.9559C170.057 42.9596 169.076 43.0673 168.17 43.2755C167.264 43.4891 166.468 43.8087 165.783 44.2435C165.097 44.6765 164.563 45.2284 164.18 45.9029C163.793 46.5755 163.599 47.3745 163.592 48.3073C163.599 49.1063 163.775 49.8328 164.122 50.4832C164.475 51.1354 164.965 51.652 165.6 52.0403C166.231 52.425 166.976 52.6238 167.838 52.6331C168.572 52.6331 169.257 52.5049 169.885 52.2429C170.514 51.979 171.047 51.5684 171.482 51.0091H171.555L171.809 52.3562H175.775C175.687 51.927 175.629 51.4197 175.595 50.8455C175.562 50.2677 175.545 49.6619 175.549 49.0301V44.08ZM171.254 47.5306C171.25 47.9728 171.15 48.3408 170.963 48.6343C170.772 48.9279 170.535 49.1453 170.244 49.294C169.952 49.4371 169.655 49.5095 169.345 49.5058C169.08 49.5095 168.837 49.4519 168.613 49.3349C168.392 49.2197 168.207 49.0413 168.075 48.7941C167.937 48.5544 167.867 48.2386 167.86 47.8576C167.867 47.3169 168.028 46.8914 168.333 46.5755C168.641 46.2596 169.048 46.0348 169.558 45.9029C170.072 45.7654 170.634 45.7003 171.254 45.704V47.5306Z" fill="#4C6E1C"/>
<path d="M183.084 32.1245H178.617V52.4299H183.084V32.1245Z" fill="#4C6E1C"/>
<path d="M190.598 34.395C190.592 33.9451 190.5 33.5495 190.31 33.212C190.122 32.8745 189.86 32.6082 189.527 32.417C189.195 32.2239 188.806 32.1283 188.363 32.1245C187.93 32.1283 187.544 32.2239 187.212 32.417C186.876 32.6082 186.614 32.8745 186.422 33.212C186.228 33.5495 186.134 33.9451 186.131 34.395C186.134 34.8282 186.228 35.2125 186.417 35.5463C186.603 35.8837 186.863 36.1481 187.201 36.3412C187.533 36.5362 187.922 36.6318 188.363 36.6375C188.791 36.6318 189.17 36.5418 189.505 36.3525C189.841 36.165 190.107 35.9025 190.299 35.5687C190.494 35.235 190.592 34.8432 190.598 34.395ZM190.548 38.2349H186.18V52.4299H190.548V38.2349Z" fill="#4C6E1C"/>
<path d="M202.029 38.7651C201.604 38.5585 201.09 38.3798 200.487 38.2384C199.886 38.0932 199.222 38.0169 198.496 38.0132C197.397 38.0206 196.451 38.2272 195.648 38.6274C194.846 39.0313 194.228 39.5841 193.792 40.282C193.353 40.9781 193.133 41.7747 193.13 42.6681C193.122 43.1557 193.224 43.6471 193.44 44.1385C193.657 44.6354 194.019 45.11 194.531 45.5679C195.045 46.0257 195.746 46.4445 196.636 46.8223C197.102 47.0122 197.469 47.189 197.734 47.3453C197.998 47.5054 198.185 47.6692 198.29 47.8404C198.401 48.0079 198.449 48.2052 198.446 48.4267C198.449 48.7673 198.318 49.026 198.048 49.2047C197.784 49.3871 197.379 49.4746 196.833 49.4802C196.454 49.4746 196.057 49.4262 195.648 49.335C195.236 49.2382 194.846 49.1209 194.481 48.9795C194.119 48.8418 193.816 48.6985 193.577 48.5533L192.83 51.7043C193.133 51.8923 193.496 52.0524 193.925 52.1901C194.352 52.3316 194.814 52.4376 195.319 52.514C195.818 52.5903 196.332 52.6331 196.859 52.6331C198.041 52.6275 199.056 52.4488 199.912 52.0896C200.763 51.7322 201.419 51.2092 201.878 50.5318C202.34 49.8487 202.571 49.0223 202.577 48.0489C202.571 47.4514 202.456 46.8875 202.229 46.3682C202.002 45.8471 201.643 45.3706 201.151 44.9351C200.654 44.5014 200.003 44.1124 199.193 43.7699C198.684 43.5559 198.287 43.3642 197.998 43.1967C197.715 43.0329 197.516 42.8691 197.397 42.7128C197.285 42.5527 197.227 42.3815 197.231 42.1916C197.235 41.8752 197.355 41.6202 197.601 41.4322C197.849 41.2424 198.211 41.1475 198.697 41.14C199.204 41.1512 199.681 41.2275 200.14 41.369C200.594 41.5123 200.975 41.6686 201.282 41.8399L202.029 38.7651Z" fill="#4C6E1C"/>
<path d="M209.481 34.395C209.477 33.9451 209.379 33.5495 209.18 33.212C208.987 32.8745 208.713 32.6082 208.362 32.417C208.015 32.2239 207.608 32.1283 207.145 32.1245C206.691 32.1283 206.292 32.2239 205.941 32.417C205.59 32.6082 205.316 32.8745 205.115 33.212C204.917 33.5495 204.814 33.9451 204.811 34.395C204.814 34.8282 204.913 35.2125 205.111 35.5463C205.308 35.8837 205.58 36.1481 205.929 36.3412C206.277 36.5362 206.684 36.6318 207.145 36.6375C207.592 36.6318 207.992 36.5418 208.339 36.3525C208.69 36.165 208.968 35.9025 209.168 35.5687C209.375 35.235 209.477 34.8432 209.481 34.395ZM209.429 38.2349H204.863V52.4299H209.429V38.2349Z" fill="#4C6E1C"/>
<path d="M224.912 43.8162C224.908 42.5872 224.736 41.545 224.391 40.6803C224.047 39.8155 223.532 39.1562 222.857 38.7024C222.178 38.2467 221.343 38.0132 220.352 38.0132C219.697 38.0207 219.114 38.1271 218.603 38.3344C218.09 38.5417 217.652 38.8014 217.288 39.1151C216.925 39.4289 216.637 39.7464 216.425 40.0714H216.352L216.124 38.2896H212.322C212.349 38.9545 212.369 39.6624 212.392 40.4151C212.41 41.1696 212.422 41.969 212.422 42.8113V52.43H216.856V44.1411C216.863 43.5397 216.959 43.0597 217.142 42.6918C217.33 42.3276 217.567 42.0605 217.856 41.8961C218.148 41.7318 218.449 41.6515 218.768 41.6552C219.183 41.6589 219.521 41.7691 219.77 41.9914C220.022 42.2099 220.202 42.5069 220.315 42.8954C220.425 43.2764 220.479 43.7209 220.479 44.2177V52.43H224.912V43.8162Z" fill="#4C6E1C"/>
<path d="M236.488 38.2894L236.288 39.8181H236.238C235.906 39.2488 235.46 38.8083 234.908 38.491C234.357 38.1774 233.694 38.0169 232.934 38.0132C232.13 38.0132 231.378 38.1886 230.678 38.5339C229.982 38.8774 229.369 39.3738 228.842 40.0234C228.314 40.6692 227.901 41.4494 227.603 42.3639C227.305 43.2729 227.15 44.3013 227.146 45.4399C227.146 46.3731 227.267 47.2522 227.505 48.0772C227.744 48.9003 228.093 49.6264 228.552 50.2573C229.012 50.8881 229.572 51.3846 230.242 51.743C230.91 52.1032 231.67 52.2861 232.529 52.2899C233.196 52.2899 233.808 52.1573 234.368 51.8904C234.928 51.6254 235.39 51.2409 235.755 50.7351H235.806V51.5153C235.792 52.6352 235.515 53.4788 234.964 54.0481C234.411 54.6192 233.642 54.9029 232.655 54.9048C231.938 54.8973 231.272 54.8133 230.659 54.6491C230.044 54.4886 229.527 54.2982 229.101 54.0761L228.286 57.4395C228.893 57.7306 229.585 57.9472 230.368 58.0946C231.146 58.2439 231.961 58.3186 232.806 58.3186C234.117 58.3111 235.215 58.1581 236.102 57.8557C236.99 57.5496 237.709 57.1371 238.254 56.6145C238.803 56.0937 239.22 55.5021 239.503 54.8357C239.79 54.1713 239.981 53.4751 240.082 52.749C240.179 52.0192 240.226 51.3006 240.22 50.5858V42.6532C240.22 41.6957 240.237 40.8652 240.264 40.1615C240.292 39.4541 240.322 38.8326 240.345 38.2894H236.488ZM235.755 46.5691C235.747 47.1608 235.658 47.6311 235.489 47.9858C235.315 48.3385 235.091 48.5942 234.808 48.751C234.53 48.9041 234.225 48.9806 233.9 48.9769C233.432 48.9769 233.027 48.8275 232.691 48.5326C232.355 48.2377 232.097 47.8215 231.914 47.284C231.732 46.7446 231.64 46.1062 231.64 45.3634C231.64 44.5888 231.736 43.9112 231.925 43.3382C232.119 42.7578 232.385 42.3098 232.729 41.9888C233.074 41.6677 233.483 41.5035 233.951 41.4998C234.266 41.4998 234.56 41.5838 234.836 41.7517C235.106 41.9235 235.326 42.1792 235.496 42.5245C235.662 42.8716 235.747 43.3084 235.755 43.8347V46.5691Z" fill="#4C6E1C"/>
<path d="M109.079 65.5861C109.436 65.4452 109.761 65.2367 110.051 64.9605C110.336 64.6862 110.569 64.3556 110.737 63.9742C110.91 63.5948 110.996 63.1702 111.001 62.7137C110.994 62.0731 110.882 61.5433 110.673 61.1282C110.459 60.7092 110.18 60.3767 109.833 60.1363C109.485 59.892 109.109 59.7117 108.701 59.5971C108.291 59.4825 107.89 59.4074 107.492 59.3773C107.095 59.3472 106.735 59.3322 106.422 59.3341C105.817 59.3341 105.243 59.3585 104.71 59.4036C104.168 59.4506 103.693 59.5088 103.283 59.5764V71.1111H105.912V66.5573H106.422C106.715 66.5536 106.961 66.6024 107.158 66.7057C107.357 66.8109 107.521 66.995 107.652 67.2562C107.78 67.5192 107.885 67.8874 107.968 68.357C108.056 68.8192 108.142 69.2381 108.231 69.6063C108.319 69.9839 108.402 70.2995 108.479 70.5569C108.559 70.8161 108.62 71.0002 108.673 71.1111H111.405C111.348 70.9946 111.286 70.8199 111.217 70.5851C111.15 70.354 111.081 70.0853 111.005 69.7773C110.932 69.471 110.856 69.1536 110.78 68.8192C110.699 68.4885 110.623 68.1617 110.55 67.8423C110.42 67.2806 110.241 66.8147 110.008 66.4465C109.779 66.0745 109.47 65.8096 109.079 65.6481V65.5861ZM105.912 64.5904V61.425C105.988 61.4006 106.094 61.3818 106.24 61.3705C106.381 61.3536 106.556 61.348 106.765 61.348C106.925 61.348 107.095 61.3667 107.275 61.4081C107.456 61.4513 107.628 61.5283 107.791 61.6429C107.955 61.7556 108.09 61.9172 108.196 62.1276C108.3 62.3361 108.352 62.6085 108.356 62.9391C108.356 63.2585 108.289 63.544 108.147 63.7901C108.009 64.0362 107.81 64.2335 107.551 64.3744C107.288 64.5134 106.972 64.5867 106.601 64.5904H105.912Z" fill="#4C6E1C"/>
<path d="M119.189 66.0023C119.193 65.5319 119.142 65.0799 119.039 64.6521C118.935 64.2186 118.751 63.8315 118.495 63.4907C118.233 63.1499 117.878 62.8795 117.421 62.6832C116.971 62.485 116.393 62.385 115.695 62.3794C115.205 62.385 114.76 62.422 114.361 62.4961C113.959 62.572 113.611 62.6683 113.312 62.7776C113.013 62.8869 112.771 62.9943 112.592 63.0962L113.071 64.7965C113.346 64.628 113.664 64.4928 114.025 64.389C114.384 64.2872 114.763 64.2316 115.166 64.2316C115.523 64.2316 115.798 64.2798 115.994 64.3742C116.192 64.465 116.331 64.5965 116.411 64.7613C116.488 64.9262 116.525 65.1151 116.525 65.33C115.893 65.3337 115.308 65.3985 114.763 65.5244C114.219 65.6485 113.744 65.843 113.334 66.1005C112.921 66.3579 112.603 66.6876 112.369 67.0914C112.139 67.4933 112.021 67.9712 112.016 68.525C112.021 69.0066 112.128 69.4382 112.335 69.8253C112.545 70.2161 112.841 70.5236 113.22 70.7551C113.604 70.9866 114.047 71.1033 114.563 71.1107C115.005 71.1107 115.414 71.0311 115.794 70.8773C116.17 70.7162 116.488 70.4736 116.752 70.1402H116.795L116.946 70.944H119.326C119.273 70.6866 119.238 70.3865 119.219 70.042C119.198 69.6975 119.189 69.3363 119.189 68.9603V66.0023ZM116.613 68.062C116.61 68.3268 116.553 68.5473 116.438 68.7214C116.323 68.8955 116.181 69.0288 116.005 69.1159C115.831 69.1992 115.652 69.2455 115.469 69.2455C115.311 69.2455 115.166 69.2103 115.031 69.1437C114.898 69.0714 114.786 68.964 114.705 68.8214C114.621 68.6732 114.58 68.4861 114.58 68.2602C114.584 67.936 114.679 67.6823 114.863 67.4933C115.046 67.3026 115.293 67.1711 115.598 67.0914C115.901 67.0118 116.243 66.9692 116.613 66.9729V68.062Z" fill="#4C6E1C"/>
<path d="M123.792 60.2905C123.788 60.0182 123.732 59.7853 123.621 59.5806C123.512 59.3778 123.356 59.2145 123.159 59.1018C122.961 58.9891 122.734 58.9309 122.474 58.9272C122.216 58.9309 121.989 58.9891 121.792 59.1018C121.596 59.2145 121.438 59.3778 121.327 59.5806C121.214 59.7853 121.156 60.0182 121.152 60.2905C121.156 60.5515 121.211 60.7768 121.323 60.9815C121.436 61.1805 121.587 61.3439 121.785 61.4566C121.983 61.573 122.214 61.6312 122.474 61.635C122.723 61.635 122.95 61.5786 123.149 61.466C123.345 61.3552 123.501 61.1974 123.612 60.9928C123.728 60.7937 123.788 60.559 123.792 60.2905ZM123.763 62.5927H121.181V71.1104H123.763V62.5927Z" fill="#4C6E1C"/>
<path d="M133.132 65.8953C133.132 65.1514 133.025 64.5169 132.81 63.9957C132.602 63.4746 132.284 63.0705 131.872 62.7967C131.456 62.5191 130.947 62.3851 130.34 62.3794C129.94 62.3851 129.578 62.4474 129.265 62.572C128.95 62.6985 128.683 62.8552 128.461 63.0441C128.237 63.2348 128.061 63.4274 127.931 63.6294H127.887L127.747 62.5456H125.416C125.431 62.9478 125.449 63.3764 125.46 63.8334C125.472 64.2941 125.479 64.7737 125.479 65.2835V71.1107H128.193V66.0917C128.203 65.7292 128.256 65.4346 128.369 65.2137C128.488 64.9927 128.634 64.8304 128.81 64.7303C128.986 64.634 129.174 64.583 129.367 64.583C129.622 64.5887 129.825 64.6529 129.982 64.7888C130.135 64.921 130.244 65.1023 130.315 65.3345C130.382 65.5668 130.416 65.8368 130.416 66.1351V71.1107H133.132V65.8953Z" fill="#4C6E1C"/>
<path d="M135.255 62.5632H134.148V64.4891H135.255V71.1109H137.855V64.4891H139.375V62.5632H137.841C137.837 62.403 137.844 62.2202 137.855 62.0261C137.87 61.8301 137.909 61.6455 137.976 61.4664C138.041 61.2855 138.145 61.1386 138.295 61.0236C138.444 60.9068 138.651 60.8502 138.918 60.8465C139.067 60.8465 139.203 60.8578 139.327 60.8766C139.454 60.8955 139.567 60.9237 139.672 60.9539L139.833 58.9055C139.657 58.8509 139.457 58.8038 139.23 58.7736C139.001 58.7397 138.743 58.7246 138.444 58.7246C138.009 58.7246 137.601 58.7924 137.218 58.9394C136.835 59.0826 136.497 59.2975 136.204 59.5914C135.907 59.8816 135.678 60.2529 135.509 60.6957C135.344 61.1386 135.258 61.6587 135.255 62.2579V62.5632Z" fill="#4C6E1C"/>
<path d="M146.789 68.8203C146.493 68.9205 146.179 69.0002 145.845 69.0596C145.512 69.1171 145.157 69.1467 144.778 69.1523C144.411 69.1523 144.078 69.0985 143.779 68.9947C143.481 68.8889 143.237 68.7294 143.052 68.5125C142.868 68.2973 142.761 68.0191 142.735 67.689H147.472C147.502 67.5407 147.522 67.3738 147.533 67.1809C147.544 66.9862 147.548 66.7859 147.548 66.58C147.544 65.6305 147.393 64.8441 147.105 64.2228C146.818 63.5978 146.421 63.1398 145.909 62.8301C145.399 62.5315 144.808 62.3794 144.139 62.3794C143.511 62.3831 142.958 62.5055 142.474 62.7485C141.988 62.9877 141.58 63.3141 141.247 63.7351C140.918 64.1524 140.665 64.6308 140.495 65.1742C140.323 65.7139 140.238 66.287 140.238 66.8953C140.238 67.7725 140.401 68.5292 140.721 69.156C141.04 69.7866 141.508 70.265 142.121 70.6026C142.735 70.9364 143.481 71.107 144.363 71.1107C144.865 71.1107 145.353 71.0736 145.83 70.9976C146.306 70.9178 146.739 70.8029 147.132 70.6471L146.789 68.8203ZM142.724 65.8771C142.735 65.6991 142.764 65.5136 142.814 65.3189C142.868 65.1223 142.943 64.9387 143.045 64.7681C143.147 64.5975 143.276 64.4602 143.431 64.3545C143.59 64.2488 143.779 64.1913 144.002 64.1876C144.23 64.1913 144.42 64.2451 144.566 64.3471C144.714 64.4491 144.836 64.5863 144.919 64.7532C145.006 64.9202 145.067 65.1019 145.1 65.3003C145.137 65.4951 145.153 65.688 145.153 65.8771H142.724Z" fill="#4C6E1C"/>
<path d="M156.423 58.9272H153.772V63.2553H153.727C153.581 62.9981 153.351 62.789 153.041 62.6336C152.728 62.4744 152.341 62.3967 151.891 62.3912C151.443 62.3912 151.027 62.4855 150.629 62.6761C150.227 62.8686 149.875 63.1499 149.566 63.5199C149.256 63.8974 149.016 64.3545 148.836 64.8985C148.659 65.4462 148.567 66.0754 148.564 66.7878C148.564 67.4095 148.64 67.985 148.79 68.5069C148.943 69.0342 149.156 69.4894 149.439 69.878C149.718 70.2666 150.056 70.5701 150.45 70.7847C150.842 71.0012 151.282 71.1104 151.768 71.1104C152.074 71.1104 152.365 71.0623 152.647 70.9642C152.931 70.8643 153.187 70.72 153.42 70.5349C153.654 70.3499 153.844 70.1241 153.997 69.8614H154.044L154.162 70.9476H156.483C156.472 70.7255 156.46 70.4702 156.453 70.1907C156.442 69.915 156.438 69.619 156.431 69.3118C156.427 69.0028 156.423 68.6937 156.423 68.3829V58.9272ZM153.772 67.5335C153.768 67.9129 153.702 68.2089 153.581 68.4236C153.46 68.6364 153.31 68.7844 153.133 68.8714C152.957 68.9584 152.782 68.9972 152.614 68.9935C152.337 68.9935 152.097 68.9102 151.891 68.7437C151.684 68.5753 151.523 68.3292 151.406 68.0035C151.286 67.6742 151.23 67.2726 151.225 66.7878C151.225 66.3585 151.275 65.9736 151.374 65.6239C151.473 65.2778 151.628 64.9984 151.837 64.793C152.044 64.5839 152.308 64.4822 152.629 64.4748C152.786 64.4729 152.95 64.5173 153.125 64.608C153.301 64.6987 153.45 64.8541 153.577 65.0743C153.702 65.2945 153.768 65.598 153.772 65.9847V67.5335Z" fill="#4C6E1C"/>
<path d="M167.128 59.3335H163.793L160.748 71.1107H163.407L164.034 68.3658H166.696L167.367 71.1107H170.088L167.128 59.3335ZM164.349 66.3412L164.873 63.9801C164.917 63.7514 164.967 63.4924 165.021 63.2013C165.077 62.912 165.134 62.6171 165.188 62.3241C165.245 62.0255 165.297 61.757 165.351 61.515H165.381C165.431 61.7532 165.485 62.0217 165.54 62.3147C165.598 62.6058 165.655 62.8969 165.713 63.1862C165.77 63.4773 165.822 63.7438 165.872 63.9801L166.38 66.3412H164.349Z" fill="#4C6E1C"/>
<path d="M176.569 62.5439L176.449 63.4637H176.418C176.226 63.1216 175.967 62.8542 175.643 62.6673C175.321 62.4785 174.934 62.385 174.488 62.3794C174.017 62.3794 173.579 62.4841 173.172 62.6935C172.765 62.901 172.404 63.2001 172.093 63.5852C171.787 63.9722 171.546 64.4433 171.371 64.991C171.196 65.5388 171.104 66.1501 171.104 66.8362C171.104 67.3933 171.178 67.9242 171.316 68.4177C171.452 68.9094 171.657 69.3469 171.929 69.7264C172.196 70.1058 172.524 70.405 172.916 70.6181C173.303 70.8331 173.748 70.9434 174.251 70.9471C174.643 70.9434 175 70.8667 175.33 70.7059C175.654 70.547 175.924 70.3171 176.136 70.0142H176.166V70.4816C176.162 71.1509 175.998 71.6594 175.676 72.0015C175.352 72.3417 174.903 72.5137 174.326 72.5137C173.903 72.5081 173.514 72.4595 173.157 72.3604C172.798 72.2651 172.498 72.1492 172.248 72.0164L171.773 74.0373C172.128 74.2093 172.531 74.3402 172.988 74.428C173.444 74.5196 173.919 74.5626 174.413 74.5626C175.179 74.557 175.823 74.4673 176.339 74.286C176.86 74.1027 177.281 73.8541 177.602 73.5419C177.92 73.2297 178.165 72.8745 178.331 72.4744C178.496 72.0763 178.609 71.6594 178.666 71.2238C178.727 70.7826 178.752 70.3507 178.749 69.9226V65.1611C178.749 64.5891 178.76 64.0899 178.774 63.6674C178.791 63.245 178.806 62.8692 178.82 62.5439H176.569ZM176.136 67.5148C176.136 67.8662 176.083 68.1485 175.981 68.3654C175.878 68.5748 175.746 68.7262 175.584 68.8234C175.424 68.915 175.241 68.9599 175.054 68.9599C174.779 68.9561 174.545 68.8683 174.348 68.6925C174.15 68.5131 173.999 68.2644 173.892 67.9429C173.787 67.6176 173.73 67.2344 173.73 66.7894C173.733 66.3258 173.791 65.9201 173.899 65.5724C174.008 65.2284 174.168 64.9555 174.371 64.7648C174.571 64.5741 174.809 64.4732 175.083 64.4694C175.269 64.4694 175.442 64.5199 175.6 64.6227C175.759 64.7256 175.888 64.8789 175.985 65.0864C176.083 65.2939 176.136 65.5575 176.136 65.8715V67.5148Z" fill="#4C6E1C"/>
<path d="M185.52 62.4228C185.441 62.4096 185.357 62.4002 185.279 62.3907C185.197 62.3851 185.097 62.3794 184.975 62.3794C184.748 62.3794 184.509 62.4342 184.258 62.5418C184.012 62.6532 183.781 62.825 183.561 63.0592C183.346 63.2952 183.166 63.6011 183.024 63.9769H182.965L182.86 62.5456H180.646C180.661 62.9327 180.675 63.35 180.686 63.7994C180.697 64.2526 180.706 64.7529 180.706 65.3138V71.1107H183.286V66.8225C183.286 66.6676 183.297 66.5204 183.311 66.3787C183.326 66.2333 183.353 66.1144 183.39 66.0143C183.464 65.7613 183.581 65.5536 183.728 65.3949C183.877 65.2363 184.054 65.1212 184.254 65.0437C184.453 64.9701 184.666 64.9323 184.884 64.9361C185.015 64.9361 185.135 64.938 185.236 64.9474C185.336 64.9531 185.428 64.9758 185.52 64.9927V62.4228Z" fill="#4C6E1C"/>
<path d="M189.377 60.2905C189.374 60.0182 189.319 59.7853 189.207 59.5806C189.096 59.3778 188.941 59.2145 188.745 59.1018C188.548 58.9891 188.318 58.9309 188.056 58.9272C187.803 58.9309 187.576 58.9891 187.38 59.1018C187.181 59.2145 187.025 59.3778 186.914 59.5806C186.798 59.7853 186.741 60.0182 186.738 60.2905C186.741 60.5515 186.798 60.7768 186.909 60.9815C187.018 61.1805 187.174 61.3439 187.37 61.4566C187.569 61.573 187.796 61.6312 188.056 61.635C188.308 61.635 188.532 61.5786 188.734 61.466C188.932 61.3552 189.087 61.1974 189.199 60.9928C189.314 60.7937 189.374 60.559 189.377 60.2905ZM189.348 62.5927H186.769V71.1104H189.348V62.5927Z" fill="#4C6E1C"/>
<path d="M196.756 68.8182C196.588 68.887 196.405 68.9372 196.201 68.9744C196.003 69.0078 195.78 69.0301 195.546 69.0301C195.155 69.0301 194.812 68.9372 194.507 68.7605C194.208 68.5821 193.97 68.3236 193.798 67.9852C193.625 67.6431 193.535 67.2266 193.531 66.7358C193.528 66.2784 193.61 65.8786 193.77 65.5365C193.93 65.1944 194.16 64.9267 194.461 64.737C194.761 64.5474 195.117 64.4469 195.531 64.4432C195.796 64.4469 196.026 64.4693 196.217 64.5083C196.409 64.5511 196.573 64.592 196.712 64.6385L197.095 62.6509C196.897 62.5783 196.651 62.517 196.354 62.4631C196.053 62.411 195.733 62.3794 195.39 62.3794C194.664 62.385 194.016 62.4947 193.45 62.7178C192.88 62.939 192.399 63.2514 192.007 63.6549C191.612 64.0546 191.315 64.5269 191.107 65.0698C190.902 65.6127 190.801 66.2021 190.801 66.8417C190.804 67.7416 190.976 68.5095 191.319 69.1454C191.662 69.7832 192.15 70.2666 192.779 70.5994C193.411 70.9359 194.157 71.107 195.024 71.1107C195.304 71.107 195.574 71.0958 195.83 71.0642C196.085 71.0345 196.312 70.9973 196.514 70.9508C196.716 70.9025 196.878 70.8523 197.002 70.7946L196.756 68.8182Z" fill="#4C6E1C"/>
<path d="M205.549 62.5825H202.892V67.7058C202.888 67.9897 202.838 68.2238 202.735 68.4118C202.634 68.598 202.501 68.7363 202.34 68.8322C202.179 68.9262 202.006 68.9704 201.821 68.9704C201.454 68.9668 201.184 68.8119 201.016 68.5022C200.847 68.1925 200.763 67.7555 200.767 67.1896V62.5825H198.109V67.5583C198.113 68.7603 198.347 69.6489 198.808 70.2351C199.267 70.8214 199.932 71.1108 200.797 71.1108C201.209 71.1034 201.568 71.0408 201.879 70.9135C202.19 70.79 202.45 70.6389 202.666 70.4545C202.877 70.272 203.046 70.0876 203.164 69.907H203.211L203.329 70.9449H205.622C205.608 70.5725 205.593 70.1595 205.576 69.7079C205.557 69.2544 205.549 68.7713 205.549 68.257V62.5825Z" fill="#4C6E1C"/>
<path d="M210.089 58.9272H207.449V71.1104H210.089V58.9272Z" fill="#4C6E1C"/>
<path d="M212.36 62.4448H211.309V64.3627H212.36V67.9019C212.36 68.1027 212.366 68.3373 212.387 68.6094C212.409 68.8815 212.46 69.1593 212.545 69.452C212.631 69.7391 212.77 70.0075 212.96 70.2571C213.149 70.5123 213.415 70.7112 213.754 70.8688C214.09 71.0265 214.519 71.1034 215.043 71.1109C215.402 71.1072 215.723 71.0884 216.005 71.0509C216.289 71.0115 216.517 70.9702 216.688 70.912L216.672 68.8552C216.563 68.8853 216.455 68.9059 216.351 68.9172C216.245 68.9284 216.119 68.9322 215.971 68.9322C215.65 68.9397 215.41 68.8346 215.251 68.6244C215.092 68.418 215.011 68.0633 215.011 67.5717V64.3627H216.792V62.4448H215.011V60.146L212.36 60.8891V62.4448Z" fill="#4C6E1C"/>
<path d="M225.45 62.5825H222.792V67.7058C222.789 67.9897 222.738 68.2238 222.635 68.4118C222.536 68.598 222.401 68.7363 222.24 68.8322C222.079 68.9262 221.907 68.9704 221.723 68.9704C221.354 68.9668 221.087 68.8119 220.916 68.5022C220.749 68.1925 220.665 67.7555 220.667 67.1896V62.5825H218.01V67.5583C218.014 68.7603 218.248 69.6489 218.708 70.2351C219.169 70.8214 219.832 71.1108 220.699 71.1108C221.109 71.1034 221.469 71.0408 221.781 70.9135C222.09 70.79 222.352 70.6389 222.566 70.4545C222.778 70.272 222.946 70.0876 223.066 69.907H223.111L223.229 70.9449H225.523C225.508 70.5725 225.493 70.1595 225.478 69.7079C225.457 69.2544 225.45 68.7713 225.45 68.257V62.5825Z" fill="#4C6E1C"/>
<path d="M232.222 62.4228C232.145 62.4096 232.059 62.4002 231.978 62.3907C231.892 62.3851 231.788 62.3794 231.659 62.3794C231.422 62.3794 231.173 62.4342 230.913 62.5418C230.655 62.6532 230.416 62.825 230.186 63.0592C229.957 63.2952 229.771 63.6011 229.626 63.9769H229.564L229.456 62.5456H227.146C227.161 62.9327 227.176 63.35 227.19 63.7994C227.201 64.2526 227.209 64.7529 227.209 65.3138V71.1107H229.898V66.8225C229.898 66.6676 229.905 66.5204 229.926 66.3787C229.941 66.2333 229.968 66.1144 230.006 66.0143C230.084 65.7613 230.205 65.5536 230.361 65.3949C230.516 65.2363 230.699 65.1212 230.909 65.0437C231.114 64.9701 231.336 64.9323 231.566 64.9361C231.703 64.9361 231.826 64.938 231.93 64.9474C232.035 64.9531 232.133 64.9758 232.222 64.9927V62.4228Z" fill="#4C6E1C"/>
<path d="M239.589 68.8203C239.29 68.9205 238.976 69.0002 238.641 69.0596C238.313 69.1171 237.958 69.1467 237.579 69.1523C237.212 69.1523 236.879 69.0985 236.578 68.9947C236.277 68.8889 236.035 68.7294 235.85 68.5125C235.665 68.2973 235.558 68.0191 235.536 67.689H240.269C240.299 67.5407 240.319 67.3738 240.33 67.1809C240.341 66.9862 240.345 66.7859 240.345 66.58C240.341 65.6305 240.193 64.8441 239.905 64.2228C239.619 63.5978 239.218 63.1398 238.706 62.8301C238.196 62.5315 237.605 62.3794 236.936 62.3794C236.312 62.3831 235.756 62.5055 235.272 62.7485C234.786 62.9877 234.382 63.3141 234.049 63.7351C233.716 64.1524 233.463 64.6308 233.292 65.1742C233.122 65.7139 233.035 66.287 233.035 66.8953C233.04 67.7725 233.197 68.5292 233.519 69.156C233.84 69.7866 234.308 70.265 234.919 70.6026C235.532 70.9364 236.277 71.107 237.16 71.1107C237.662 71.1107 238.154 71.0736 238.63 70.9976C239.103 70.9178 239.539 70.8029 239.929 70.6471L239.589 68.8203ZM235.521 65.8771C235.532 65.6991 235.562 65.5136 235.616 65.3189C235.669 65.1223 235.745 64.9387 235.843 64.7681C235.944 64.5975 236.074 64.4602 236.233 64.3545C236.391 64.2488 236.58 64.1913 236.803 64.1876C237.031 64.1913 237.215 64.2451 237.363 64.3471C237.516 64.4491 237.633 64.5863 237.716 64.7532C237.803 64.9202 237.862 65.1019 237.897 65.3003C237.934 65.4951 237.951 65.688 237.951 65.8771H235.521Z" fill="#4C6E1C"/>
</svg>
